<svg xmlns="http://www.w3.org/2000/svg" viewBox="0 0 545.67 166.74"><defs><style>.cls-1{fill:#fff;}</style></defs><g id="Layer_2" data-name="Layer 2"><g id="Layer_1-2" data-name="Layer 1"><path class="cls-1" d="M41.23,102.3,29.17,144.06a1.68,1.68,0,0,1-3.24,0L14,102.3a1.67,1.67,0,0,0-1.62-1.22H1.69a1.68,1.68,0,0,0-1.6,2.22L20.61,164a1.69,1.69,0,0,0,1.6,1.14H32.44A1.68,1.68,0,0,0,34,164l20.69-60.68a1.68,1.68,0,0,0-1.59-2.23H42.85A1.66,1.66,0,0,0,41.23,102.3Z"></path><path class="cls-1" d="M94,125.73a19.28,19.28,0,0,0-8.18-7,27,27,0,0,0-11.14-2.22q-10.43,0-16.94,6.57T51.18,142q0,13.14,7.23,19a25.8,25.8,0,0,0,16.69,5.83q11.45,0,17.82-6.91A17.82,17.82,0,0,0,97,153.48a1.69,1.69,0,0,0-1.61-2.21H85.78a1.59,1.59,0,0,0-1.37.8,9.92,9.92,0,0,1-2.1,2.46,10.45,10.45,0,0,1-6.87,2.17,12.57,12.57,0,0,1-6.83-1.78q-4-2.47-4.79-8.12a1.68,1.68,0,0,1,1.67-1.88h31a1.69,1.69,0,0,0,1.69-1.69,54.93,54.93,0,0,0-.42-7.71A23.38,23.38,0,0,0,94,125.73ZM66,136.76a1.7,1.7,0,0,1-1.62-2.18,11.8,11.8,0,0,1,2.85-5.16q2.63-2.7,7.39-2.7A10.89,10.89,0,0,1,82,129.27a9.51,9.51,0,0,1,3,5.42,1.71,1.71,0,0,1-1.65,2.07Z"></path><path class="cls-1" d="M142,122.32a13.83,13.83,0,0,0-5.09-4.07,19.88,19.88,0,0,0-8.44-1.75,17.56,17.56,0,0,0-7.42,1.63,12.83,12.83,0,0,0-3.38,2.32,1.68,1.68,0,0,1-2.83-1.23V103a1.69,1.69,0,0,0-1.69-1.69h-9a1.69,1.69,0,0,0-1.69,1.69v60.47a1.69,1.69,0,0,0,1.69,1.68h9a1.69,1.69,0,0,0,1.69-1.68v-24q0-6.09,2.52-9.37a8.76,8.76,0,0,1,7.4-3.29c3.13,0,5.26,1.11,6.38,3.31a12.72,12.72,0,0,1,1.3,6.18v27.16a1.68,1.68,0,0,0,1.69,1.68h9.27a1.68,1.68,0,0,0,1.68-1.68V137.29a67.35,67.35,0,0,0-.43-9.15A12.62,12.62,0,0,0,142,122.32Z"></path><rect class="cls-1" x="152.9" y="117.76" width="12.56" height="47.37" rx="1.69"></rect><rect class="cls-1" x="152.9" y="100.69" width="12.56" height="11.43"></rect><path class="cls-1" d="M194,127.11c2.94,0,5.1,1,6.49,2.87a10.92,10.92,0,0,1,1.79,4.78H215q-1.05-10.12-6.72-14.13t-14.59-4q-10.49,0-16.45,6.78t-6,19q0,10.8,5.4,17.58t16.83,6.78q11.44,0,17.27-8.13a20.66,20.66,0,0,0,4.09-10.69H202.21A11.66,11.66,0,0,1,200,154q-1.83,2.34-6.18,2.34-6.15,0-8.37-5.91a23.75,23.75,0,0,1-1.22-8.36,25.92,25.92,0,0,1,1.22-8.76Q187.75,127.11,194,127.11Z"></path><rect class="cls-1" x="220.22" y="101.08" width="12.39" height="64.06" rx="1.69"></rect><path class="cls-1" d="M280.64,125.73a19.25,19.25,0,0,0-8.19-7,26.92,26.92,0,0,0-11.14-2.22q-10.41,0-16.93,6.57T237.85,142q0,13.14,7.23,19a25.79,25.79,0,0,0,16.68,5.83q11.46,0,17.82-6.91a17.72,17.72,0,0,0,4.09-6.35,1.69,1.69,0,0,0-1.61-2.21h-9.61a1.62,1.62,0,0,0-1.38.8,9.69,9.69,0,0,1-2.09,2.46,10.46,10.46,0,0,1-6.88,2.17,12.53,12.53,0,0,1-6.82-1.78c-2.69-1.65-4.28-4.35-4.8-8.12a1.69,1.69,0,0,1,1.68-1.88h31a1.7,1.7,0,0,0,1.69-1.69,53.18,53.18,0,0,0-.43-7.71A23.24,23.24,0,0,0,280.64,125.73Zm-27.94,11a1.7,1.7,0,0,1-1.62-2.18,11.8,11.8,0,0,1,2.85-5.16q2.63-2.7,7.39-2.7a10.84,10.84,0,0,1,7.34,2.55,9.47,9.47,0,0,1,3,5.42,1.71,1.71,0,0,1-1.65,2.07Z"></path><path class="cls-1" d="M326.59,125.5H305.06a1.69,1.69,0,0,1-1.69-1.69v-21a1.68,1.68,0,0,0-1.68-1.68h-9.93a1.68,1.68,0,0,0-1.68,1.68v60.69a1.68,1.68,0,0,0,1.68,1.68h9.93a1.68,1.68,0,0,0,1.68-1.68V138.22a1.69,1.69,0,0,1,1.69-1.68h21.53a1.68,1.68,0,0,1,1.68,1.68v25.23a1.69,1.69,0,0,0,1.69,1.68h9.93a1.68,1.68,0,0,0,1.68-1.68V102.76a1.68,1.68,0,0,0-1.68-1.68H330a1.69,1.69,0,0,0-1.69,1.68v21A1.69,1.69,0,0,1,326.59,125.5Z"></path><path class="cls-1" d="M371.78,116.24q-12.21,0-18.21,7.52a29.41,29.41,0,0,0,0,35.58q6,7.4,18.21,7.4t18.21-7.4a29.37,29.37,0,0,0,0-35.58Q384,116.25,371.78,116.24Zm8.3,36.25a11,11,0,0,1-16.71,0q-2.92-3.86-2.93-11t2.93-10.95a11,11,0,0,1,16.71,0Q383,134.4,383,141.51T380.08,152.49Z"></path><path class="cls-1" d="M439.41,145.52c-.09-.22-.17-.44-.24-.67a7.24,7.24,0,0,1,.23-4.78,23.26,23.26,0,0,0,1.82-8.6V131l0,0c.19-8.26-.89-11.73-1.71-13.17H431v25.77a18.8,18.8,0,0,1-1.21,7.35Q427.4,156,421.09,156c-3.29,0-5.49-1.21-6.62-3.61a15.08,15.08,0,0,1-1-6.08V117.76H400.83v28.56q0,8.12,2,12.29,3.63,7.56,14.12,7.57a19,19,0,0,0,6.35-1,17.39,17.39,0,0,0,5.62-3.56,8.68,8.68,0,0,0,1.64-1.92c.46-.72.75-1.15.87-1.3v6.69h12v-13.6A14.36,14.36,0,0,1,439.41,145.52Z"></path><path class="cls-1" d="M493.15,151.5a9.84,9.84,0,0,1-3.63-1c-.21-.11-.42-.22-.62-.34a11.84,11.84,0,0,1-2.48-2,15,15,0,0,1-1.62-2,5.7,5.7,0,0,1-.66-5c.31-1,.6-1.94.84-2.88s.43-1.82.57-2.65q.09-.45.15-.9c0-.11,0-.22,0-.33l0-.24c0-.41.08-.81.1-1.19a11.62,11.62,0,0,0,0-1.57,3.31,3.31,0,0,0,0-.33,9.33,9.33,0,0,0-2.17-5.53,35.78,35.78,0,0,0-5.34-4.59c-.47-.35-.89-.65-1.23-.88a7,7,0,0,0-.61-.42l-.26-.15a23.68,23.68,0,0,1,8.41,4.46c3.81,3.26,3.25,9.12,3.25,9.12,0,.63-.1,1.28-.19,1.93-.05.32-.1.64-.16,1-.17,1-.38,1.91-.6,2.79-.3,1.17-.62,2.22-.88,3a3.76,3.76,0,0,0,.42,3.23,12.1,12.1,0,0,0,1.41,1.77,9.54,9.54,0,0,0,2.06,1.66l.49.28a8,8,0,0,0,2.89.83l.55,0c3.74,0,7.33-3.14,9.54-4.9a3.06,3.06,0,0,0,.8-.92,3.25,3.25,0,0,0,.32-.74,3.55,3.55,0,0,0,.12-1.22,74.74,74.74,0,0,0-2.66-14.6c-.33-1.14-.69-2.23-1.06-3.27a51,51,0,0,0-2.86-6.55c-.58-1.11-1.18-2.15-1.79-3.11-.46-.72-.92-1.4-1.38-2l-.47-.63c-.77-1-1.54-2-2.3-2.79l-.45-.48c-.3-.32-.6-.62-.9-.91a23.91,23.91,0,0,0-7.21-5.13,113.52,113.52,0,0,0,1.62-28.69,35.43,35.43,0,0,1-11.72-6.07,54.76,54.76,0,0,0,24.13,5.82c10.76,0,17.54-3.51,17.54-3.51,4.22-6.81,4.29-15.52,4.29-15.52-.65-.48-1.3-.93-2-1.36a40.39,40.39,0,0,0-8.92-4.27l-1-.32a49,49,0,0,0-5.94-1.49,37.78,37.78,0,0,0-5.32-.66l2.25-1.23a16.87,16.87,0,0,0-2.14-2.86c-.62-.7-1.39-1.53-2.35-2.47l-.49-.49c-.52-.49-1.08-1-1.69-1.56-.41-.37-.85-.75-1.3-1.14-.92-.79-1.94-1.63-3.06-2.51a44.6,44.6,0,0,0-6.91-4.52c-.46-.24-.9-.45-1.32-.66s-.84-.38-1.24-.54a20.1,20.1,0,0,0-6.05-1.7l-2,2.92C472.91,6.25,456.93,0,456.93,0s-5.8,6.83-3.2,37.67c0,0-7.88,17.87-9.91,25.1s-1.76,10.46-1.76,10.46a50.49,50.49,0,0,0-4.17,3.3c-.46.39-.94.83-1.46,1.29-1.28,1.17-2.71,2.55-4.23,4.15-1.07,1.12-2.17,2.36-3.29,3.69-6.28,7.23-25.07,17.36-28.22,29.67h39.39c1.85,1.46,3.45,5.66,3.15,16.11h0a25,25,0,0,1-2,9.37,5.35,5.35,0,0,0-.38,2,5,5,0,0,0,.22,1.48,4.59,4.59,0,0,0,.17.48c1.06,2.55,2.32,4.68,4.26,5.71A5.33,5.33,0,0,0,448,151a16.31,16.31,0,0,0,4.66-.88,2.27,2.27,0,0,0,.77-.4,2.41,2.41,0,0,0,.59-.64c5.27-8.05,7.63-17.07,6.67-21.4-.07-.3-1.9-7.11-4.64-10.62.29.21.55.43.82.65s.53.47.84.77l.24.23c.09.09.19.18.28.28a19,19,0,0,1,4.46,8.49c1,5.37-1.87,14.85-7,22.7a4.35,4.35,0,0,1-1.05,1.13,4.49,4.49,0,0,1-1.39.72c-.49.16-1.07.33-1.71.49v12.61h10.7a1.69,1.69,0,0,0,1.69-1.68v-24a18.58,18.58,0,0,1,1.2-7.21q2.34-5.34,8.59-5.35,5.08,0,6.9,3.65a13.3,13.3,0,0,1,1,5.74v28.81h12.69V151.51l-.48,0C493.62,151.53,493.38,151.52,493.15,151.5Z"></path><path class="cls-1" d="M533.11,102.85V119.1a1.69,1.69,0,0,1-2.79,1.31A14.81,14.81,0,0,0,520,116.63a18.15,18.15,0,0,0-14.92,7,21,21,0,0,0-1.48,2.11l.27.89a77.41,77.41,0,0,1,2.73,15,5.31,5.31,0,0,1-.7,3.14,5.22,5.22,0,0,1-1.29,1.48l-.54.44c-.84.67-1.83,1.46-2.93,2.21a1.66,1.66,0,0,0-.68,1.78,23.15,23.15,0,0,0,4.7,9.27,17.62,17.62,0,0,0,14,6.71,17,17,0,0,0,8.43-1.91,14.87,14.87,0,0,0,3.19-2.48,1.68,1.68,0,0,1,2.85,1.23h0a1.68,1.68,0,0,0,1.68,1.68H544a1.68,1.68,0,0,0,1.68-1.68v-60.6a1.69,1.69,0,0,0-1.68-1.69H534.8A1.69,1.69,0,0,0,533.11,102.85Zm-2.39,49.42a9.13,9.13,0,0,1-8,3.91,8.76,8.76,0,0,1-7.85-3.93q-2.58-3.93-2.58-10.5a19.09,19.09,0,0,1,2.54-10.19c1.7-2.74,4.35-4.1,8-4.1a9.45,9.45,0,0,1,6.25,2.25q4.39,3.75,4.39,12.43Q533.46,148.37,530.72,152.27Z"></path><polygon class="cls-1" points="483.53 124.53 483.53 124.53 483.53 124.53 483.53 124.53 483.53 124.53"></polygon><path class="cls-1" d="M481,122.35l-.05,0,.46.4c.16.15.45.39.76.65Z"></path></g></g></svg>